<?xml version="1.0"?>
<svg xmlns="http://www.w3.org/2000/svg" viewBox="0 0 512 512" width="512" height="512"><g id="Outline"><path d="M422.917,296.542,350.953,287.5A7.933,7.933,0,0,1,344,279.6V262.359a94.5,94.5,0,0,0,31.77-64.506l1.7-5.89a31.987,31.987,0,0,0,16.278-58.575,100.889,100.889,0,0,0-1.519-46.336A92.837,92.837,0,0,0,364.775,42.2c-1.973-1.766-3.714-3.221-5.322-4.448A103.345,103.345,0,0,0,258.438,23.113L230.423,34.1c-29.418.937-43.947,28.1-45.291,54.985-.974,18.1,2.357,35.557,6.107,50.665a31.969,31.969,0,0,0,14.31,50.483c3.533,9.961,7.951,18.295,15.1,30.487A94.524,94.524,0,0,0,248,262.358V279.6a7.87,7.87,0,0,1-6.177,7.762c-.3.04-.557.089-.766.134l-.049,0c-2.075.26-22.06,2.777-32.35,4.081-9.051-18.33-18.567-36.014-28.342-52.641l-12.247-29.168a8,8,0,0,0-10.348-4.33l-5.766,2.307-13.063-87.916a8,8,0,0,0-3.885-5.735L64.654,73.088A8,8,0,0,0,52.9,77.941L32.27,155.365a8,8,0,0,0,1.339,6.872l53.75,71.368-5.453,2.183a8,8,0,0,0-4.4,10.524l12.157,28.954C98.977,310.1,108.91,341.5,120,371.2V464a32.036,32.036,0,0,0,32,32H272a8,8,0,0,0,7.923-9.1,119,119,0,0,0-3.285-14.909l19.337-6.146,90.047,28.651a31.952,31.952,0,0,0,9.7,1.507H440a32.036,32.036,0,0,0,32-32V352.08A56.006,56.006,0,0,0,422.917,296.542ZM456,407.16l-83.693-8.369,44.944-22.472L456,382.777Zm0-55.08v14.476l-38.685-6.447a8,8,0,0,0-4.893.736l-46.683,23.341L296,391.16l-46.984-4.7c-1.33-3.647-2.682-7.259-4-10.781-8.7-23.3-18.445-46.425-29.021-68.9,7.624-.964,17.271-2.18,22.831-2.879a69.454,69.454,0,0,0,116.9.32l65.221,8.2A39.993,39.993,0,0,1,456,352.08ZM264,279.6v-6.483A68.377,68.377,0,0,0,293.827,280h4.346A68.377,68.377,0,0,0,328,273.117V279.6a23.985,23.985,0,0,0,11.159,20.261A53.434,53.434,0,0,1,254.6,298.6,23.967,23.967,0,0,0,264,279.6ZM306.868,136H285.132a17.589,17.589,0,0,0-14.732-8H237.749A102.882,102.882,0,0,0,248,83.158V72h8.676c13.1,0,23.6,9.578,34.718,19.719C302.323,101.69,313.624,112,328,112h32c0,4.815,0,10.974,0,16.081-.528-.048-1.061-.081-1.6-.081H321.6A17.589,17.589,0,0,0,306.868,136ZM232,145.6a1.6,1.6,0,0,1,1.6-1.6h36.8a1.6,1.6,0,0,1,1.6,1.6v12.8a1.6,1.6,0,0,1-1.6,1.6H233.6a1.6,1.6,0,0,1-1.6-1.6Zm88,0a1.6,1.6,0,0,1,1.6-1.6h36.8a1.6,1.6,0,0,1,1.6,1.6v12.8a1.6,1.6,0,0,1-1.6,1.6H321.6a1.6,1.6,0,0,1-1.6-1.6ZM376,176V144a16,16,0,0,1,0,32ZM201.11,89.919c.919-18.377,9.56-39.839,30.89-39.839a7.985,7.985,0,0,0,2.922-.553L264.275,38.01a87.282,87.282,0,0,1,85.349,12.365l.088.069c1.282.976,2.718,2.179,4.387,3.672,19.98,17.918,29.128,46.3,24.348,73.987-.808-.062-1.622-.1-2.446-.1,0-10,0-24,0-24a8,8,0,0,0-8-8H328c-8.174,0-16.747-7.821-25.822-16.1C289.9,68.7,275.982,56,256.676,56H240a8,8,0,0,0-8,8V83.158A86.931,86.931,0,0,1,219.582,128H216a31.855,31.855,0,0,0-10.672,1.836C202.52,117.42,200.368,103.71,201.11,89.919ZM216,144v32a16,16,0,0,1,0-32Zm16,47.344V175.919c.528.048,38.4.081,38.4.081A17.621,17.621,0,0,0,288,158.4V152h16v6.4A17.621,17.621,0,0,0,321.6,176s37.872-.033,38.4-.081c0,0-.04,18.332-.119,19.776,0,.032,0,.065-.006.1a78.567,78.567,0,0,1-28.229,56.089A52.385,52.385,0,0,1,298.173,264h-4.346a52.385,52.385,0,0,1-33.473-12.119A78.589,78.589,0,0,1,232,191.344Zm-1.971,189.945q.633,1.688,1.274,3.4l-5.042-.5-46.683-23.341a8.008,8.008,0,0,0-4.893-.736l-5.012.835c-4.415-10.83-8.729-22.161-12.854-33.781l-15.078,5.354c3.784,10.658,7.726,21.086,11.76,31.122l-18.119,3.02c-10.377-27.677-19.729-56.872-28.515-89.043l62.817-25.142c9.366,16.246,18.473,33.459,27.121,51.262C209.023,328.883,220.2,354.972,230.029,381.289ZM162.6,238.071l-60.969,24.375L95.4,247.62l60.959-24.4ZM48.732,155.721l13.59-51.015,22.809,54.321a16.047,16.047,0,0,0-2.175,3.685,15.727,15.727,0,0,0,.008,12.246,16.313,16.313,0,0,0,21.037,8.7,15.974,15.974,0,0,0,8.886-8.717,15.711,15.711,0,0,0-.008-12.243,16.2,16.2,0,0,0-12.937-9.722L77.261,98.957l46.369,27.03,13.058,87.874L102.75,227.445ZM251.47,480l9.914-3.158c.287,1.055.567,2.11.83,3.158Zm12.9-20.9L201.148,479.24a16.8,16.8,0,0,1-4.908.76H152a16.019,16.019,0,0,1-16-16V445.416l32.809-13.123,53.231,10.024,47.539,15.126ZM456,464a16.019,16.019,0,0,1-16,16H395.726a15.964,15.964,0,0,1-4.851-.753L226.426,426.922a7.886,7.886,0,0,0-.946-.238l-56-10.546a8,8,0,0,0-4.451.434L136,428.184V382.777l38.749-6.458,45.673,22.836a7.989,7.989,0,0,0,2.782.805L456,423.24Z"/><path d="M287.745,223.821c2.068-.1,14.442-.1,16.511,0,2.374.12,4.811.179,7.229.179a116.169,116.169,0,0,0,16.5-1.052l1.222-.186-2.4-15.818-1.22.185a113.735,113.735,0,0,1-20.512.713c-2.337-.119-15.795-.119-18.131,0a113.9,113.9,0,0,1-20.512-.713l-1.221-.185-2.4,15.818,1.223.186A129.128,129.128,0,0,0,287.745,223.821Z"/><path d="M131.464,301.727c1.609,5.123,3.295,10.319,5.012,15.447l15.172-5.079c-1.685-5.033-3.34-10.135-4.919-15.163Z"/></g></svg>
