<?xml version="1.0" encoding="iso-8859-1"?>
<!-- Generator: Adobe Illustrator 16.0.0, SVG Export Plug-In . SVG Version: 6.00 Build 0)  -->
<!DOCTYPE svg PUBLIC "-//W3C//DTD SVG 1.1//EN" "http://www.w3.org/Graphics/SVG/1.1/DTD/svg11.dtd">
<svg version="1.1" id="Capa_1" xmlns="http://www.w3.org/2000/svg" xmlns:xlink="http://www.w3.org/1999/xlink" x="0px" y="0px"
	 width="920.326px" height="920.325px" viewBox="0 0 920.326 920.325" style="enable-background:new 0 0 920.326 920.325;"
	 xml:space="preserve">
<g>
	<path d="M72.351,732.025v168.3c0,11,9,20,20,20h356.9c11,0,20-9,20-20v-168.3l0,0c0,0,0.8-51.5-49-62.2
		c-36.9-7.899-70.9-18.8-88.2-39.8h-122.6c-17.3,21-51.2,31.9-88.2,39.8C71.551,680.625,72.351,732.025,72.351,732.025
		L72.351,732.025z"/>
	<path d="M801.051,241.925c2.1-3.6,1.8-8.2-0.7-11.6c-4.4-5.8-9-11.2-13.6-16c-12.9-13.5-1.9-35.8,16.699-33.7
		c5,0.6,10.2,1.3,15.301,2.1c5.1,0.8,10.1-2.1,11.6-7.1c21.1-66,19.2-128.6,14.8-166.4c-1.2-9.9-14.1-12.7-19.3-4.1
		c-20.8,34.2-74.5,87.9-212.7,125.2c-190.3,51.3-249.399,194.7-267.399,268.601c-29.4,28.5-58,57.899-85.7,88
		c-0.7,0.699-1.3,1.5-1.9,2.3h78.5c15.4-15.9,31-31.601,46.8-47.101C626.651,426.226,745.151,337.825,801.051,241.925z"/>
	<path d="M307.251,520.426h-52.5h-74.7c-11,0-20,9-20,20v36.199c0,11,9,20,20,20h181.6c11,0,20-9,20-20v-36.199c0-11-9-20-20-20
		H307.251z"/>
</g>
<g>
</g>
<g>
</g>
<g>
</g>
<g>
</g>
<g>
</g>
<g>
</g>
<g>
</g>
<g>
</g>
<g>
</g>
<g>
</g>
<g>
</g>
<g>
</g>
<g>
</g>
<g>
</g>
<g>
</g>
</svg>
